<?xml version="1.0" encoding="UTF-8"?>
<svg id="Layer_1" data-name="Layer 1" xmlns="http://www.w3.org/2000/svg" viewBox="0 0 809.15 228.64">
  <defs>
    <style>
      .cls-1 {
        fill: #fff;
        stroke-width: 0px;
      }
    </style>
  </defs>
  <path class="cls-1" d="M217.8,45.16c-14.33-6.43-47.48-4.28-52.29-3.55-6.56.99-5.94,6.65-5.94,6.65.26,3.13,3.03,5.45,6.17,5.45h35.57s14.13-.89,23.87,11.93c0,0,8.08,9.36,5.37,23.86-1.72,9.23-7.94,16.94-16.2,20.87-12.28,5.84-35.25,4.91-35.25,4.91,0,0-28.71-.74-43.39-9.07l-.02-29.26c7.83,8.29,18.4,10.95,18.4,10.95,0,0,10.7,3.01,26.64,3.23,0,0,11.73.71,22.45-1.94,2.57-.84,4.36-3.37,4.08-6.27-.3-3.09-3.08-5.36-6.19-5.36h-35.55c-15.79,0-23.86-11.93-23.86-11.93-8.51-11.35-5.37-23.86-5.37-23.86.99-5.1,3.37-9.73,6.64-13.51,4.23-4.91,10.03-8.42,16.63-9.76,0,0,32.17-5.91,59.26,7.32l-1.01,19.33Z"/>
  <path class="cls-1" d="M474.99,25.15V1.28c-14.03,2.86-23.86,10.66-23.86,10.66v23.86s9.03-7.41,23.86-10.66Z"/>
  <path class="cls-1" d="M474.99,35.63c-14.05,2.84-23.86,10.65-23.86,10.65v31.29s-.89,14.8,11.93,26.68c0,0,9.32,9.12,23.86,9.11,0,0,9.92.9,21.17-6.93-4.91-7.24-5.79-16.31-5.79-16.31-10.9,6.28-19.76-.63-19.76-.63-3.89-2.75-7.65-8.18-7.55-14.43v-39.44Z"/>
  <path class="cls-1" d="M510.79,28.98v54.56c0,2.05.2,4.03.6,5.96,0,0,1.05,6.19,5.37,11.94,0,0,5.97,8.9,17.9,11.33,0,0,8.23,2.27,17.9-1.89,0,0,7.01-2.74,11.93-9.45,2.57-3.5,4.47-7.53,5.37-11.94.66-3.23.6-6.05.6-6.05,0-7.52-1.43-11.84-1.43-11.84h-10.51v5.96s.52,4.01-3.18,8.1c-3.7,4.09-8.77,3.83-8.77,3.83,0,0-4.97.06-8.6-3.65-3.63-3.72-3.36-8.28-3.36-8.28l.05-35.17s6.24,2.4,11.93,2.29c5.69-.11,12.63-.84,23.86-5.24V15.58s-11.06,5.08-23.86,5.24c-12.8.16-23.86-8.88-23.86-8.88C505.28-.82,486.93.01,486.93.01v23.86s10.43-.67,23.86,5.1Z"/>
  <path class="cls-1" d="M334.38,83.36v29.91s-23.86,0-23.86,0v-5.97c-8.08,3.33-16.81,5.45-29.62,6.43-15.11,1.15-23.54-2.72-23.54-2.72-5.49-2.31-9.7-5.91-12.47-9.68-8.78-11.93-5.37-23.86-5.37-23.86,2.69-13.43,13.29-19.25,13.29-19.25,0,0,6.39-4.62,15.94-4.62h35.59c3.18,0,5.95-2.4,6.15-5.57,0,0,.51-4.8-4.78-6.36-32.14-6.05-53.61,3.45-53.61,3.45l-1.04-19.6s24.7-12.92,59.44-7.12c4.33.72,8.26,2.67,11.67,5.18,2.05,1.51,3.91,3.27,5.51,5.24,2.98,3.66,5.11,8.04,6.09,12.85,0,0,1.34,7.23,0,11.93-1.23,4.33-2.67,8.54-5.37,11.93-10.52,13.23-23.86,11.93-23.86,11.93h-35.58c-3.38,0-6.29,2.77-6.19,6.15,0,0-.3,4.28,5.13,5.85-.2-.27,39.92,8.19,61.84-8.41,1.9-1.44,4.62-.09,4.62,2.29Z"/>
  <path class="cls-1" d="M417.66,77.49c1-3.44,1.87-7.5,2.64-11.93.69-3.98.92-11.93.92-11.93.02-5.52-1.38-11.93-1.38-11.93-2.96-13.46-10.56-23.86-10.56-23.86h23.86s3.16,7.39,5.96,18.05c1.77,6.73,3.27,14.77,4,23.08,1.37,15.75-4,29.72-4,29.72-.25.8-1.42,3.77-2.26,5.9-.95,2.4-2.15,4.71-3.69,6.77-4.23,5.64-10.39,9.61-17.91,11.34-6.19,1.42-11.93,0-11.93,0-11.48-2.33-20.71-11.16-23.27-23.27-.49-2.34-.6-5.97-.6-5.97v-35.55c0-3.16-2.35-5.95-5.49-6.19-3.2-.24-5.91,2.02-6.37,5.03-1.18,8.65-.5,18.81-.5,18.81,1.49,27.38,12.37,47.73,12.37,47.73h-29.83c-10.51-35.21-7.29-61.26-5.32-71.14.85-4.3,2.51-8.42,5.07-11.98,4.1-5.69,10.17-10.01,18.15-11.73,0,0,5.38-1.31,11.93,0,11.7,2.34,20.9,11.58,23.27,23.27,0,0,.69,3.39.6,5.96v35.8c0,3.3,2.67,5.97,5.97,5.97,0,0,4.06.26,5.74-4.27,1.69-4.53,2.62-7.66,2.62-7.66Z"/>
  <path class="cls-1" d="M673.68,83.45v29.91h-23.86v-5.97c-8.08,3.33-16.81,5.45-29.62,6.43-15.11,1.15-23.54-2.72-23.54-2.72-5.49-2.31-9.7-5.91-12.47-9.68-8.78-11.93-5.37-23.86-5.37-23.86,2.69-13.43,13.29-19.25,13.29-19.25,0,0,6.39-4.62,15.94-4.62h35.59c3.18,0,5.95-2.4,6.15-5.57,0,0,.51-4.8-4.78-6.36-32.14-6.05-53.61,3.45-53.61,3.45l-1.04-19.6s24.7-12.92,59.44-7.12c4.33.72,8.26,2.67,11.67,5.18,2.05,1.51,3.91,3.27,5.51,5.24,2.98,3.66,5.11,8.04,6.09,12.85,0,0,1.34,7.23,0,11.93-1.23,4.33-2.67,8.54-5.37,11.93-10.52,13.23-23.86,11.93-23.86,11.93h-35.58c-3.38,0-6.29,2.77-6.19,6.15,0,0-.3,4.28,5.13,5.85-.2-.27,39.92,8.19,61.84-8.41,1.9-1.44,4.62-.09,4.62,2.29Z"/>
  <g>
    <rect class="cls-1" x="0" y="131.23" width="23.86" height="95.46"/>
    <path class="cls-1" d="M77.6,202.82h17.85s0,23.86,0,23.86h-16.96c-14.11.42-24.8-6.39-24.8-6.39-12.76-7.26-17.9-18.22-17.9-18.22,0,0-9.74-16.2-5.42-35.05,0,0,2.05-10.08,12.73-13.06,0,0,15.76-3.96,16.56-22.74,0,0,0,0,0,0h23.91c0,13.73-6.38,23.86-6.38,23.86-9.49,15.99-23.49,20.43-23.49,20.43,0,0-1.62,10.85,5.96,19.18,0,0,6.18,8.12,17.95,8.12Z"/>
  </g>
  <path class="cls-1" d="M189.41,167.03c-1.09-4.24-2.75-8.24-4.89-11.93-1.78-3.09-3.9-5.96-6.31-8.55-3.24-3.5-7-6.52-11.16-8.93-3.69-2.13-7.69-3.79-11.93-4.88-1.94-.5-3.94-.88-5.97-1.13-1.95-.25-3.95-.37-5.96-.37-4.12,0-8.12.52-11.93,1.5-2.05.53-4.04,1.19-5.97,1.97-2.06.83-4.05,1.81-5.96,2.91-4.49,2.6-8.52,5.91-11.93,9.78-2.1,2.37-3.95,4.94-5.54,7.69-2.14,3.69-3.8,7.69-4.89,11.93-.98,3.81-1.5,7.81-1.5,11.93s.52,8.12,1.5,11.93c1.09,4.24,2.75,8.24,4.88,11.93,1.59,2.75,3.45,5.34,5.55,7.7,3.41,3.87,7.44,7.18,11.93,9.78,1.91,1.11,3.9,2.08,5.96,2.91,1.93.78,3.92,1.44,5.97,1.97,3.81.98,7.81,1.5,11.93,1.5,2.02,0,4.01-.12,5.96-.37,2.03-.25,4.03-.63,5.97-1.13,4.24-1.09,8.24-2.75,11.93-4.88,2.69-1.55,5.21-3.36,7.53-5.39,3.94-3.44,7.31-7.53,9.94-12.08,2.13-3.69,3.79-7.69,4.88-11.93.98-3.81,1.5-7.81,1.5-11.93s-.52-8.12-1.5-11.93ZM167.05,180.39c-.23,3.81-1.34,7.37-3.14,10.5-2.1,3.65-5.15,6.69-8.79,8.8-1.85,1.06-3.85,1.89-5.97,2.43-1.43.36-2.91.6-4.43.7-.51.04-1.02.05-1.54.05s-1.03-.01-1.54-.05c-3.77-.24-7.3-1.35-10.4-3.13-2.25-1.3-4.27-2.96-5.97-4.88-1.06-1.2-2.01-2.52-2.82-3.92-1.8-3.12-2.91-6.69-3.14-10.5-.03-.47-.04-.95-.04-1.43s.01-.96.04-1.43c.23-3.81,1.34-7.37,3.14-10.5.82-1.4,1.76-2.71,2.82-3.91,1.7-1.94,3.72-3.59,5.97-4.88,3.12-1.8,6.69-2.91,10.5-3.14.47-.03.95-.04,1.43-.04s.96.01,1.43.04c1.55.09,3.06.33,4.53.71,2.12.55,4.12,1.37,5.97,2.43,3.65,2.1,6.69,5.15,8.79,8.79,1.8,3.12,2.91,6.69,3.14,10.5.03.47.04.95.04,1.43s-.01.96-.04,1.43Z"/>
  <path class="cls-1" d="M326.66,137.62v-6.39h-23.86v95.46h23.86v-6.39s13.83,8.43,33.09,8.34c0,0,16.54-.12,26.58-7.91,5.66-4.4,9.86-10.62,11.33-17.9,1.48-7.28-.46-13.85-.46-13.85-2.84-10.67-10.88-15.99-10.88-15.99-1.59-1.19-3.31-2.23-5.13-3.09.71-.9,1.35-1.87,1.94-2.87,6.48-10.84.98-21.96.98-21.96-2.07-4.47-5.53-8.1-9.72-10.64-12.26-7.41-35.8-1.7-35.8-1.7-7.77,2.08-11.93,4.89-11.93,4.89ZM374.08,195.11c.35,1.17.36,2.45.01,3.62-.51,1.71-1.63,2.9-3.34,3.62-14.84,5.15-44.09-2.51-44.09-2.51v-41.77s23.27-6.57,32.67-2.25c0,0,.01,0,.01,0,0,0,1.11.46,2.01,1.82,2.65,4.02-.47,9.38-5.28,9.38h-11.52c-3.4-.06-5.97,1.61-5.97,1.61-3.57,2.06-5.96,5.92-5.96,10.33s2.4,8.27,5.96,10.32c0,0,2.46,1.61,5.97,1.61h23.86s4.36-.1,5.65,4.21Z"/>
  <path class="cls-1" d="M265.41,134.57s0,0-.01,0c-5.88,3.85-13.28,12.08-19.45,29.59-7.86-23.13-19.45-29.59-19.45-29.59-5.35-3.77-10.37-3.32-10.37-3.32-8.21,0-15.13,5.53-17.24,13.06-.39,1.28-.66,3.51-.66,3.51,0,0-3.42,22.6,0,44.02,2.81,17.59,11.93,34.86,11.93,34.86h23.86c-14.85-18.29-14.91-51.68-14.91-52.19h0c0-2.48,2-4.48,4.47-4.48,0,0,4.21-.53,6.62,7.28,1.6,5.19,1.62,15.47,9.56,20.07,0,0,5.76,3.93,12.38,0,7.88-4.68,7.75-14.95,9.55-20.07,0,0,3.21-10.66,9.41-6.19,1.08.78,1.69,2.06,1.69,3.39h0c0,.51-.06,33.9-14.91,52.19h23.88c.15-.3,8.6-16.14,11.92-34.83,0,0,3.3-14.48,0-44.1-1.49-13.39-13.37-15.96-13.37-15.96,0,0-7.58-2.45-14.89,2.75Z"/>
  <path class="cls-1" d="M706.02,131.23v95.46h-23.87v-29.83c-6.3-.22-10.72-4.74-11.94-5.99,0,0-7.92-8.66-18.39-11.22-9.45-2.31-17.41,2.41-17.41,2.41v44.63s-23.86,0-23.86,0v-95.46h23.87v26.97s16.46-11.04,35.8,8.83c0,0,5.26,5.96,11.93,5.96v-41.76h23.87Z"/>
  <path class="cls-1" d="M555.03,226.7h-.01c-19.12.01-31.55-11.93-31.55-11.93-11.81-10.45-14.44-23.05-14.44-23.05-3.82-12.25-.23-24.68-.23-24.68,5.11-20.63,22.36-29.4,22.36-29.4,0,0,9.73-6.4,23.86-6.39,23.86.02,47.73,11.93,47.73,11.93v23.86s-23.49-11.9-47.73-11.98c0,0-13.5-.63-20.73,11.98,0,0-7.15,11.08,0,23.86,0,0,6.08,11.98,20.72,11.98,23.02,0,47.72-11.98,47.72-11.98h0v23.86h0s-23.83,11.94-47.71,11.93Z"/>
  <path class="cls-1" d="M809.15,196.75v29.91h-23.86v-5.97c-8.08,3.33-16.81,5.45-29.62,6.43-15.11,1.15-23.54-2.72-23.54-2.72-5.49-2.31-9.7-5.91-12.47-9.68-8.78-11.93-5.37-23.86-5.37-23.86,2.69-13.43,13.29-19.25,13.29-19.25,0,0,6.39-4.62,15.94-4.62h35.59c3.18,0,5.95-2.4,6.15-5.57,0,0,.51-4.8-4.78-6.36-32.14-6.05-53.61,3.45-53.61,3.45l-1.04-19.6s24.7-12.92,59.44-7.12c4.33.72,8.26,2.67,11.67,5.18,2.05,1.51,3.91,3.27,5.51,5.24,2.98,3.66,5.11,8.04,6.09,12.85,0,0,1.34,7.23,0,11.93-1.23,4.33-2.67,8.54-5.37,11.93-10.52,13.23-23.86,11.93-23.86,11.93h-35.58c-3.38,0-6.29,2.77-6.19,6.15,0,0-.3,4.28,5.13,5.85-.2-.27,39.92,8.19,61.84-8.41,1.9-1.44,4.62-.09,4.62,2.29Z"/>
  <path class="cls-1" d="M500.47,178.95h0c.01,19.14-11.93,31.57-11.93,31.57-10.45,11.81-23.05,14.44-23.05,14.44-12.25,3.82-24.68.23-24.68.23-20.63-5.11-29.4-22.36-29.4-22.36,0,0-6.4-9.73-6.39-23.86.02-23.86,11.93-47.73,11.93-47.73h23.86s-11.9,23.49-11.98,47.73c0,0-.63,13.5,11.98,20.73,0,0,11.08,7.15,23.86,0,0,0,11.98-6.08,11.98-20.72,0-23.02-11.98-47.72-11.98-47.72h0s23.86,0,23.86,0h0s11.94,23.84,11.93,47.72Z"/>
</svg>